{"title":"P A R A D O X.2016.WEBRip.RR.mp4","uid":14504592,"size":1314584962,"categoryP":"video","categoryS":"movies","magnet":"?xt=urn:btih:18e0dd10dbf6d6fa437e8f65f02a3348feec93db&amp;dn=P+A+R+A+D+O+X.2016.WEBRip.RR.mp4&amp;tr=udp%3A%2F%2Ftracker.leechers-paradise.org%3A6969&amp;tr=udp%3A%2F%2Fzer0day.ch%3A1337&amp;tr=udp%3A%2F%2Fopen.demonii.com%3A1337&amp;tr=udp%3A%2F%2Ftracker.coppersurfer.tk%3A6969&amp;tr=udp%3A%2F%2Fexodus.desync.com%3A6969","seeders":0,"leechers":0,"uploader":"RadioResearch","files":1,"time":1462224195,"description":"After his wife is killed in a hit-and-run accident by a mysterious Hooded Man, DYLAN BRANDT, a Theoretical Physicist, builds a Quantum Suicide Machine to jump through parallel universes to find another version of his wife. Based on the ancient Greek myth of Orpheus and Eurydice, where a man storms of the Gates of Hades to return his wife to the land of the living, Dylan transverses infinite worlds of the Multi-verse to find his wife. But with every jump, Dylan is thwarted by the efforts of the mysterious Hooded Man. Ignoring the warnings of his mentor, DR. YAMAMOTO, Dylan recklessly jumps into ever more flawed universes, until the rules of physics completely break down, threatening to destroy the universe and everything in it. \r\n\r\nScreencaps:  http://i.imgur.com/f2oFfz6.jpg\r\n\r\nEnjoy!\r\nRR\r\n\r\nVideo\r\nID                                       : 1\r\nFormat                                   : AVC\r\nFormat/Info                              : Advanced Video Codec\r\nFormat profile                           :   \r\nFormat settings, CABAC                   : Yes\r\nFormat settings, ReFrames                : 5 frames\r\nCodec ID                                 : avc1\r\nCodec ID/Info                            : Advanced Video Coding\r\nDuration                                 : 1h 22mn\r\nBit rate                                 : 1 972 Kbps\r\nWidth                                    : 1 280 pixels\r\nHeight                                   : 720 pixels\r\nDisplay aspect ratio                     : 16:9\r\nFrame rate mode                          : Constant\r\nFrame rate                               : 23.976 (24000/1001) fps\r\nColor space                              : YUV\r\nChroma subsampling                       : 4:2:0\r\nBit depth                                : 8 bits\r\nScan type                                : Progressive\r\nBits/(Pixel*Frame)                       : 0.089\r\nStream size                              : 1.13 GiB (92%)\r\nWriting library                          : x264 core 148 r11 a01e339\r\nEncoding settings                        : cabac=1 / ref=5 / deblock=1:0:0 / analyse=0x3:0x113 / me=umh / subme=8 / psy=1 / psy_rd=1.00:0.00 / mixed_ref=1 / me_range=16 / chroma_me=1 / trellis=1 / 8x8dct=1 / cqm=0 / deadzone=21,11 / fast_pskip=1 / chroma_qp_offset=-2 / threads=22 / lookahead_threads=3 / sliced_threads=0 / nr=0 / decimate=1 / interlaced=0 / bluray_compat=0 / stitchable=1 / constrained_intra=0 / bframes=3 / b_pyramid=2 / b_adapt=2 / b_bias=0 / direct=3 / weightb=1 / open_gop=0 / weightp=2 / keyint=infinite / keyint_min=23 / scenecut=40 / intra_refresh=0 / rc_lookahead=50 / rc=crf / mbtree=1 / crf=20.0 / qcomp=0.60 / qpmin=5 / qpmax=69 / qpstep=4 / vbv_maxrate=2750 / vbv_bufsize=7500 / crf_max=0.0 / nal_hrd=none / filler=0 / ip_ratio=1.40 / aq=1:1.00\r\nEncoded date                             : UTC 2016-02-15 09:42:45\r\nTagged date                              : UTC 2016-02-15 09:42:45\r\nColor range                              : Limited\r\nColor primaries                          : BT.709\r\nTransfer characteristics                 : BT.709\r\nMatrix coefficients                      : BT.709\r\n\r\nAudio\r\nID                                       : 2\r\nFormat                                   : AAC\r\nFormat/Info                              : Advanced Audio Codec\r\nFormat profile                           : LC\r\nCodec ID                                 : 40\r\nDuration                                 : 1h 22mn\r\nBit rate mode                            : Variable\r\nBit rate                                 : 160 Kbps\r\nChannel(s)                               : 2 channels\r\nChannel positions                        : Front: L R\r\nSampling rate                            : 48.0 KHz\r\nFrame rate                               : 46.875 fps (1024 spf)\r\nCompression mode                         : Lossy\r\nStream size                              : 93.9 MiB (7%)\r\nEncoded date                             : UTC 2016-02-15 09:42:45\r\nTagged date                              : UTC 2016-02-15 09:42:45","torrent":{"xt":"urn:btih:18e0dd10dbf6d6fa437e8f65f02a3348feec93db","amp;dn":"P+A+R+A+D+O+X.2016.WEBRip.RR.mp4","amp;tr":["udp%3A%2F%2Ftracker.leechers-paradise.org%3A6969","udp%3A%2F%2Fzer0day.ch%3A1337","udp%3A%2F%2Fopen.demonii.com%3A1337","udp%3A%2F%2Ftracker.coppersurfer.tk%3A6969","udp%3A%2F%2Fexodus.desync.com%3A6969"],"infoHash":"18e0dd10dbf6d6fa437e8f65f02a3348feec93db","infoHashBuffer":{"type":"Buffer","data":[24,224,221,16,219,246,214,250,67,126,143,101,240,42,51,72,254,236,147,219]},"announce":[],"urlList":[]}}